<svg width="94" height="27" viewBox="0 0 94 27" fill="none" xmlns="http://www.w3.org/2000/svg">
<g clip-path="url(#clip0_264_1769)">
<path d="M34.7211 26.233H28.3567C27.4545 26.233 26.2289 25.6753 25.6338 24.9918L20.6853 19.3105H27.8404C28.7426 19.3105 29.9682 19.8683 30.5633 20.5518L34.9901 25.6343C35.2754 25.9624 35.1558 26.233 34.7211 26.233Z" fill="#00D5C4"/>
<path d="M33.3407 0.0141211C32.9086 0.0141211 32.3543 0.019589 31.645 0.025057C31.5662 0.0141211 31.4792 0.00591906 31.3841 0.00591906H20.7724C17.6174 0.00591906 17.6283 -0.155387 16.457 1.20614L12.5194 5.78012C10.5628 8.0548 9.33727 7.97825 6.57631 7.97825H0.682114C-0.0189941 7.97825 -0.211935 8.41022 0.250036 8.94062L6.28554 15.8303C8.22039 18.0421 11.0058 19.3079 13.9325 19.3079H20.6691C20.6691 19.3079 20.7833 19.39 19.8321 18.4166L11.514 8.91601C11.3237 8.70003 10.8781 8.04113 12.1009 8.04113C12.3781 8.04113 12.783 8.0466 13.3863 8.0466H22.9518C25.104 8.0466 25.0823 8.01106 25.0823 10.4799C25.0823 11.4532 25.8405 10.4306 27.2264 8.93515C28.6449 7.40685 30.9113 5.0146 34.406 1.17607C35.637 -0.169057 34.7076 0.0141211 33.3407 0.0141211Z" fill="#EFF8F8"/>
</g>
<g clip-path="url(#clip1_264_1769)">
<path d="M45.1038 20.0694C43.2212 20.0694 41.7343 19.5021 40.6449 18.3658C39.5555 17.2295 39.0117 15.6551 39.0117 13.6445C39.0117 12.3865 39.2574 11.2745 39.7486 10.3085C40.2399 9.34442 40.943 8.58811 41.8618 8.0396C42.7787 7.49296 43.8587 7.21777 45.1038 7.21777C46.1519 7.21777 47.0444 7.40498 47.7813 7.78126C48.5182 8.15754 49.1107 8.66112 49.5626 9.29013C50.0126 9.91914 50.3202 10.6268 50.4833 11.4112L48.4207 11.8043C48.3063 11.3307 48.1301 10.8758 47.892 10.4433C47.6538 10.0109 47.3144 9.65892 46.8719 9.38935C46.4294 9.11977 45.8407 8.98498 45.1038 8.98498C44.3669 8.98498 43.8175 9.08233 43.36 9.2789C42.9006 9.47546 42.5331 9.76188 42.2537 10.1363C41.9424 10.5444 41.7287 11.0517 41.6143 11.6564C41.4999 12.2611 41.4418 12.9238 41.4418 13.6426C41.4418 14.5581 41.5393 15.3668 41.7362 16.0707C41.933 16.7746 42.2968 17.3212 42.8293 17.7143C43.3618 18.1075 44.1194 18.3022 45.1019 18.3022C46.0844 18.3022 46.7876 18.1056 47.3126 17.7143C47.8357 17.3212 48.2126 16.6847 48.4432 15.8011L50.532 16.022C50.3183 17.265 49.7164 18.2497 48.7264 18.978C47.7345 19.7062 46.5288 20.0694 45.1038 20.0694Z" fill="#EFF8F8"/>
<path d="M56.967 20.069C55.0507 20.069 53.5487 19.4962 52.4593 18.3524C51.3699 17.2086 50.8262 15.6379 50.8262 13.6442C50.8262 12.4011 51.0718 11.2985 51.5631 10.3344C52.0543 9.3703 52.7631 8.61025 53.6875 8.05425C54.6119 7.49825 55.7051 7.22119 56.967 7.22119C58.2289 7.22119 59.3127 7.50013 60.2221 8.05425C61.1315 8.61025 61.8346 9.3703 62.3352 10.3344C62.834 11.2985 63.0853 12.403 63.0853 13.6442C63.0853 14.8853 62.8303 16.0385 62.324 17.0045C61.8158 17.9686 61.1033 18.7212 60.1864 19.2603C59.2695 19.7995 58.197 20.069 56.9688 20.069H56.967ZM56.967 18.328C57.5895 18.328 58.1257 18.2382 58.5758 18.0585C59.0258 17.8787 59.3989 17.626 59.6933 17.2984C60.0533 16.8903 60.3121 16.3792 60.4677 15.7652C60.6233 15.153 60.7002 14.4454 60.7002 13.6442C60.7002 12.8429 60.6214 12.1316 60.4677 11.51C60.3121 10.8885 60.0458 10.3737 59.6689 9.96561C59.3745 9.638 59.0051 9.38902 58.5645 9.21679C58.122 9.04456 57.5895 8.95845 56.967 8.95845C55.7707 8.95845 54.88 9.26921 54.2894 9.89073C53.8956 10.2988 53.6181 10.823 53.455 11.4595C53.2919 12.0979 53.2094 12.8242 53.2094 13.6423C53.2094 14.4604 53.2919 15.1867 53.455 15.8251C53.6181 16.4635 53.8975 16.9858 54.2894 17.3939C54.8782 18.0154 55.7707 18.3262 56.967 18.3262V18.328Z" fill="#EFF8F8"/>
<path d="M70.5259 7.19491C71.6397 7.19491 72.6129 7.46448 73.4491 8.00363C74.2854 8.54278 74.9342 9.29534 75.4011 10.2594C75.868 11.2235 76.1005 12.3524 76.1005 13.6441C76.1005 14.9358 75.8548 16.1133 75.3636 17.0774C74.8723 18.0415 74.2048 18.781 73.361 19.2977C72.5172 19.8125 71.5478 20.0708 70.4509 20.0708C68.7634 20.0708 67.4696 19.3763 66.5696 17.9854V19.7751H64.3589V2.6084H66.5696V9.10627C66.9015 8.64387 67.2858 8.26572 67.7227 7.97181C68.4934 7.45325 69.4272 7.19304 70.5241 7.19304L70.5259 7.19491ZM72.7366 17.3732C73.0966 16.9483 73.3423 16.4203 73.4735 15.7913C73.6048 15.1623 73.6704 14.4472 73.6704 13.646C73.6704 12.1745 73.4041 11.0214 72.8716 10.1883C72.3391 9.35525 71.3866 8.93778 70.0103 8.93778C69.3559 8.93778 68.814 9.04449 68.3884 9.25603C67.9627 9.46944 67.6177 9.75587 67.3571 10.1134C67.014 10.5721 66.7833 11.115 66.669 11.744C66.5546 12.373 66.4964 13.0151 66.4964 13.6684C66.4964 14.3218 66.5489 14.9227 66.654 15.445C66.7833 16.0871 66.9933 16.6244 67.284 17.0568C67.6196 17.5567 68.0621 17.9142 68.6115 18.1295C69.0315 18.2943 69.5134 18.3766 70.0572 18.3766C70.6797 18.3766 71.2122 18.2868 71.6528 18.1071C72.0954 17.9273 72.4554 17.6821 72.7329 17.3713L72.7366 17.3732Z" fill="#EFF8F8"/>
<path d="M93.9492 17.9617C93.6698 18.0272 93.4335 18.059 93.2367 18.059C92.8767 18.059 92.6666 17.9823 92.6104 17.8269C92.5523 17.6715 92.5241 17.4394 92.5241 17.1286V11.2673C92.5241 9.13313 91.3185 7.94626 89.6947 7.36967C88.939 7.10196 81.3451 5.49201 79.6125 10.335V7.51381H77.4019V19.7757H79.6125V15.3371C79.6125 14.2588 79.7363 13.261 79.9819 12.3456C81.1107 8.13721 86.3008 8.20647 88.4853 8.87854C89.1753 9.09195 89.7078 9.39709 89.9685 9.76963C90.1485 10.0317 90.2628 10.3294 90.3116 10.6645C90.3603 10.9996 90.3847 11.4451 90.3847 12.0011L85.9558 12.7855C85.3164 12.8997 84.6752 13.0832 84.0283 13.3377C83.3814 13.5923 82.8451 13.9668 82.4195 14.4666C81.9939 14.9664 81.7801 15.6553 81.7801 16.5389C81.7801 17.3402 81.9807 18.0029 82.382 18.5252C82.7833 19.0494 83.2989 19.4369 83.9289 19.6896C84.5589 19.9423 85.2189 20.0696 85.9071 20.0696C87.9696 20.0696 89.7209 19.3676 90.4091 17.9598C90.5403 19.2347 91.2772 19.8731 92.6198 19.8731C92.8654 19.8731 93.0979 19.8637 93.3192 19.8487C93.5404 19.8319 93.7654 19.8075 93.9942 19.7757L93.9454 17.9617H93.9492ZM90.3866 15.1424C90.3866 16.026 90.096 16.773 89.5147 17.387C88.9334 18.001 87.5965 18.3062 86.254 18.3062C85.6483 18.3062 85.1271 18.1508 84.6939 17.84C84.2589 17.5293 84.0433 17.0875 84.0433 16.5165C84.0433 15.8145 84.2552 15.3315 84.6827 15.0694C85.1083 14.8073 85.6483 14.6033 86.3046 14.4572L90.3885 13.6485V15.1443L90.3866 15.1424Z" fill="#EFF8F8"/>
</g>
<defs>
<clipPath id="clip0_264_1769">
<rect width="35.1451" height="26.2327" fill="white"/>
</clipPath>
<clipPath id="clip1_264_1769">
<rect width="54.9878" height="17.4606" fill="white" transform="translate(39.0122 2.60938)"/>
</clipPath>
</defs>
</svg>
